# xmcd CD database file
#
# Track frame offsets:
#	150
#	25068
#	67627
#	109419
#	158838
#	187918
#	219918
#	308340
#	340578
#
# Disc length: 4726 seconds
#
# Revision: 1
# Processed by: cddbd v1.5.2PL0 Copyright (c) Steve Scherf et al.
# Submitted via: CDex 1.51
#
DISCID=64127409
DTITLE=Thomas Jung - Season of Change
DYEAR=2015
DGENRE=New Age
TTITLE0=Valleys
TTITLE1=Waiting
TTITLE2=Season Of Change Part 1
TTITLE3=Season Of Change Part 2
TTITLE4=Forgiveness
TTITLE5=Season Of Change Part 3
TTITLE6=Season Of Change Part 4
TTITLE7=1st Of July
TTITLE8=Closing Of The Season
EXTD=YEAR: 2015
EXTT0=
EXTT1=
EXTT2=
EXTT3=
EXTT4=
EXTT5=
EXTT6=
EXTT7=
EXTT8=
PLAYORDER=
